<?xml version="1.0" standalone="no"?>
<!DOCTYPE svg PUBLIC "-//W3C//DTD SVG 20010904//EN"
 "http://www.w3.org/TR/2001/REC-SVG-20010904/DTD/svg10.dtd">
<svg version="1.0" xmlns="http://www.w3.org/2000/svg"
 width="800.000000pt" height="800.000000pt" viewBox="0 0 800.000000 800.000000"
 preserveAspectRatio="xMidYMid meet">
<metadata>
Created by potrace 1.11, written by Peter Selinger 2001-2013
</metadata>
<g transform="translate(0.000000,800.000000) scale(0.100000,-0.100000)"
fill="#000000" stroke="none">
<path d="M1982 6485 c-108 -24 -208 -80 -293 -165 -250 -247 -250 -643 0 -890
129 -128 286 -188 461 -177 251 16 467 186 546 430 22 68 27 100 27 192 0 139
-30 239 -104 349 -80 120 -181 196 -326 247 -77 27 -226 34 -311 14z"/>
<path d="M3887 6180 c-88 -22 -163 -83 -208 -170 -20 -38 -24 -60 -24 -135 0
-78 4 -97 27 -140 103 -195 355 -230 497 -68 106 120 106 296 0 416 -70 80
-195 121 -292 97z"/>
<path d="M5627 6180 c-63 -16 -112 -47 -160 -100 -54 -60 -77 -121 -77 -205 0
-86 23 -146 81 -209 64 -70 130 -100 224 -100 87 -1 164 33 220 96 59 65 80
120 80 213 0 93 -21 148 -80 213 -68 76 -193 115 -288 92z"/>
<path d="M1960 4604 c-284 -76 -474 -342 -457 -640 14 -250 179 -473 410 -554
87 -31 258 -38 346 -15 215 56 389 229 447 446 22 84 22 234 0 318 -58 215
-232 391 -443 445 -76 20 -229 20 -303 0z"/>
<path d="M3857 4296 c-211 -76 -277 -351 -123 -510 61 -62 117 -88 201 -94 92
-5 164 21 228 83 70 70 92 123 92 225 0 102 -22 155 -92 225 -78 76 -207 106
-306 71z"/>
<path d="M5604 4299 c-86 -25 -181 -124 -205 -212 -15 -56 -7 -174 16 -217 55
-109 145 -171 259 -178 127 -7 232 54 294 173 22 42 26 63 26 135 0 72 -4 93
-26 135 -36 70 -102 131 -165 155 -57 21 -144 25 -199 9z"/>
<path d="M1982 2735 c-108 -24 -208 -80 -293 -165 -250 -247 -250 -643 0 -890
129 -128 286 -188 461 -177 251 16 467 186 546 430 22 68 27 100 27 192 0 139
-30 239 -104 349 -80 120 -181 196 -326 247 -77 27 -226 34 -311 14z"/>
<path d="M3822 2735 c-212 -48 -393 -222 -458 -440 -25 -82 -25 -258 0 -340
67 -223 248 -395 467 -441 207 -44 435 32 579 194 91 102 160 283 160 417 0
134 -69 315 -160 417 -66 74 -169 143 -260 174 -94 32 -235 40 -328 19z"/>
<path d="M5627 2430 c-63 -16 -112 -47 -160 -100 -54 -60 -77 -121 -77 -205 0
-86 23 -146 81 -209 64 -70 130 -100 224 -100 87 -1 164 33 220 96 59 65 80
120 80 213 0 93 -21 148 -80 213 -68 76 -193 115 -288 92z"/>
</g>
</svg>
